<svg xmlns="http://www.w3.org/2000/svg" width="1004" height="386" viewBox="0 0 1004 386" fill="none">
    <path
        d="M77.6261 328.847V331.281C77.6261 340.36 77.5071 348.563 69.6021 354.873C61.7064 361.077 52.0707 360.955 41.9624 360.955C18.2723 360.955 0.959961 359.854 0.959961 329.51V308.017C0.959961 280.555 16.4133 276.566 41.9624 276.566C65.8967 276.566 77.0377 278.891 77.5071 303.816V307.041H53.5822V303.816C52.7686 296.392 47.3076 295.847 39.4057 295.847C26.1648 295.847 24.888 299.717 24.888 311.578V324.523C24.888 336.925 25.4763 341.702 39.4057 341.702C49.0539 341.702 53.6918 341.026 53.6918 331.278V328.847H77.6261Z"
        fill="#005EA2"/>
    <path
        d="M115.903 360.955H115.837C90.8701 360.955 85.4092 354.532 85.4092 331.278C85.4092 307.476 90.4007 301.494 115.837 301.494H115.903V316.107C106.533 316.164 105.385 318.785 105.385 331.278C105.385 343.782 106.533 346.292 115.903 346.338V360.955ZM146.387 331.278C146.387 355.195 141.173 360.942 115.903 360.955V346.338H116.181C125.476 346.338 126.421 343.904 126.421 331.278C126.421 318.654 125.476 316.107 116.181 316.107H115.903V301.494C141.396 301.507 146.387 306.719 146.387 331.281V331.278Z"
        fill="#005EA2"/>
    <path
        d="M184.777 360.955H184.708C159.737 360.955 154.289 354.532 154.289 331.278C154.289 307.476 159.284 301.494 184.708 301.494H184.777V316.107C175.401 316.164 174.258 318.785 174.258 331.278C174.258 343.782 175.401 346.292 184.777 346.338V360.955ZM215.258 331.278C215.258 355.195 210.044 360.942 184.777 360.955V346.338H185.064C194.359 346.338 195.295 343.904 195.295 331.278C195.295 318.654 194.359 316.107 185.064 316.107H184.777V301.494C210.279 301.507 215.258 306.719 215.258 331.281V331.278Z"
        fill="#005EA2"/>
    <path
        d="M225.61 302.161H245.589L245.12 311.352H246.043C247.654 305.918 251.188 303.296 256.092 302.186V316.123L255.569 316.107C247.097 316.107 245.589 319.001 245.589 331.278C245.589 341.026 246.277 346.338 255.569 346.338H256.092V360.176C252.001 359.097 248.6 356.675 246.509 351.541H245.589V385.436H225.61V302.151V302.161ZM256.092 302.186C258.292 301.682 260.773 301.494 263.474 301.494C278.226 301.494 286.588 307.476 286.588 322.865V336.146C286.588 353.888 280.195 360.955 263.474 360.955C260.861 360.955 258.373 360.773 256.092 360.176V346.338C263.931 346.251 266.61 344.173 266.61 331.278C266.61 320.165 266.153 316.242 256.092 316.12V302.186Z"
        fill="#005EA2"/>
    <path
        d="M324.273 360.955C300.283 360.955 294.478 352.971 294.478 331.278C294.478 308.931 299.829 301.507 324.273 301.494V314.775H323.985C316.903 314.775 314.691 316.333 314.472 323.979H324.273V334.491H314.472C314.472 344.649 316.08 347.662 324.273 347.671V360.955ZM324.273 301.494H324.33C347.219 301.494 354.066 307.576 354.066 331.281V334.494H324.273V323.979H334.091C334.091 315.454 330.82 314.797 324.273 314.778V301.494ZM354.066 340.926C354.066 349.661 351.055 354.651 345.829 357.517C340.594 360.311 333.167 360.964 324.33 360.964H324.273V347.681H324.33C330.489 347.681 334.435 347.017 334.435 340.926H354.066Z"
        fill="#005EA2"/>
    <path
        d="M396.58 324.755C396.58 320.656 396.812 316.107 391.354 316.107C385.317 316.107 383.918 320.644 383.918 325.412V360.31H363.939V302.151H383.339V310.686H384.14C386.829 304.041 392.055 301.494 399.481 301.494C413.423 301.494 414.581 312.341 414.581 322.978V327.523H396.58V324.755Z"
        fill="#005EA2"/>
    <path
        d="M497.481 302.718V309.441L486.243 297.227C479.248 301.685 475.111 305.396 475.111 312.019C475.111 320.344 482.738 325.312 490.13 325.312C492.777 325.312 495.181 324.88 497.481 324.045V328.835C495.099 329.535 492.689 329.858 490.13 329.858C480.513 329.858 470.555 323.188 470.555 312.019C470.555 302.639 477.089 297.659 483.786 293.391L487.009 291.336L489.585 294.145L497.481 302.727V302.718ZM497.481 226.51V231.068H497.368C491.61 231.068 487.898 234.534 487.898 239.903C487.898 243.992 492.032 248.616 495.913 252.33C496.457 251.973 496.98 251.616 497.481 251.281V256.728L495.356 258.108L492.758 255.618C488.377 251.416 483.339 245.838 483.339 239.903C483.339 232.022 489.109 226.522 497.381 226.522H497.481V226.513V226.51ZM497.481 358.797C494.724 359.097 491.841 359.253 488.853 359.253C462.794 359.253 434.747 344.937 434.747 313.508C434.747 297.293 444.639 282.357 460.581 274.52L465.82 271.933L462.03 267.484C454.657 258.837 450.075 251.006 450.075 238.623C450.075 214.693 468.233 199.792 497.481 199.68V195.134C465.907 195.246 445.519 212.294 445.519 238.623C445.519 252.439 450.711 261.252 458.559 270.444C441.316 278.922 430.188 295.45 430.188 313.511C430.188 348.063 460.606 363.799 488.853 363.799C491.832 363.799 494.702 363.652 497.471 363.377V358.797H497.481ZM497.481 256.728V251.281C505.708 245.603 507.063 241.549 507.063 239.468C507.063 233.324 502.15 231.099 497.481 231.068V226.51C505.94 226.563 511.623 231.753 511.623 239.468C511.623 244.859 507.163 250.459 498.382 256.15L497.481 256.728ZM497.481 328.835V324.045C500.448 322.978 503.261 321.257 506.218 318.955L497.481 309.453V302.727L509.576 315.876L512.934 319.521L509.019 322.556C504.951 325.7 501.261 327.733 497.481 328.835ZM497.794 199.68C525.264 199.68 542.317 214.115 542.317 237.344C542.317 251.547 534.268 264.518 519.616 273.876L514.99 276.832L518.749 280.824L529.342 292.103L533.088 296.095L536.336 291.68L547.321 276.745L547.518 276.479H547.84H584.906H586.217L585.432 277.52L556.346 316.133L554.034 319.199L556.681 322.002L587.297 354.32L588.342 355.418H586.821H545.719H545.418L545.218 355.208L536.246 345.028L533.223 341.593L529.808 344.627C520.583 352.818 510.165 357.42 497.481 358.797V363.377C511.301 361.953 522.77 356.963 532.835 348.028L541.804 358.208L543.375 359.963H545.719H586.806H598.914L590.598 351.194L559.98 318.867L589.065 280.255L595.346 271.92H584.897H547.84H545.208L543.641 274.045L532.656 288.993L522.072 277.711C537.926 267.584 546.873 253.14 546.873 237.344C546.873 211.706 527.608 195.134 497.794 195.134H497.481V199.68H497.794Z"
        fill="#E31E26"/>
    <path
        d="M687.741 360.311H665.596V327.733H636.68V360.311H614.514V277.245H636.68V308.477H665.596V277.245H687.741V360.311Z"
        fill="#E31E26"/>
    <path
        d="M737.703 360.311L738.382 349.107H737.481C734.833 358.086 728.186 360.955 720.09 360.955C708.574 360.955 700.368 356.087 700.368 341.918V302.161H719.424V336.825C719.424 342.124 719.981 346.339 726.406 346.339C731.497 346.339 737.158 343.695 737.158 337.926V302.161H756.211V360.311H737.703Z"
        fill="#E31E26"/>
    <path
        d="M788.228 302.161V313.007H789.007C791.777 303.816 797.422 301.494 806.395 301.494C819.257 301.494 825.128 307.576 825.128 320.099V360.295H806.072V324.523C805.95 318.876 804.404 316.107 798.202 316.107C789.674 316.107 788.228 321.201 788.228 328.303V360.298H769.176V302.161H788.228Z"
        fill="#E31E26"/>
    <path
        d="M881.183 316.108H859.124V342.14C859.246 345.582 859.9 347.018 863.461 347.018C868.44 347.018 868.218 343.473 868.44 339.472L868.55 336.381H883.737V341.593C883.737 357.42 877.844 360.965 862.338 360.965C850.151 360.965 840.068 359.419 840.068 344.793V316.12H832.989V302.161H840.068V289.859H859.124V302.161H881.183V316.12V316.111V316.108Z"
        fill="#E31E26"/>
    <path
        d="M916.9 360.955C894.02 360.955 888.484 352.971 888.484 331.278C888.484 308.931 893.573 301.507 916.9 301.494V314.775H916.634C909.874 314.775 907.762 316.333 907.54 323.979H916.9V334.491H907.54C907.54 344.649 909.095 347.662 916.9 347.671V360.955ZM916.9 301.494H916.956C938.788 301.494 945.316 307.576 945.316 331.281V334.494H916.9V323.979H926.27C926.27 315.454 923.15 314.797 916.9 314.778V301.494ZM945.316 340.926C945.316 349.661 942.437 354.651 937.445 357.517C932.463 360.311 925.368 360.964 916.956 360.964H916.9V347.681H916.956C922.837 347.681 926.583 347.017 926.583 340.926H945.316Z"
        fill="#E31E26"/>
    <path
        d="M985.874 324.755C985.874 320.656 986.096 316.107 980.879 316.107C975.121 316.107 973.785 320.644 973.785 325.412V360.31H954.732V302.151H973.253V310.686H974.01C976.554 304.041 981.549 301.494 988.628 301.494C1001.51 301.494 1002.96 311.677 1003.04 321.977V327.523H985.874V324.755Z"
        fill="#E31E26"/>
    <path
        d="M260.05 114.903C260.05 83.8052 267.642 64.815 308.075 64.815H375.368C398.182 64.815 411.314 69.9927 411.314 87.9536V93.8665H488.011C488.709 23.1587 474.582 0.633281 365.817 0.564453H291.079C222.24 0.633281 181.271 17.981 181.271 91.0634V163.073C181.271 236.311 222.396 253.572 291.489 253.572H365.354C390.709 253.572 410.944 252.361 427.052 249.617C426.441 246.104 426.132 242.403 426.132 238.458C426.132 219.274 433.789 203.315 447.375 191.999C457.871 183.255 471.688 177.699 487.864 176.097C488.042 171.119 488.077 165.841 488.02 160.273H411.323V166.182C411.323 184.143 398.182 189.321 375.378 189.321H308.075C267.642 189.321 260.05 170.331 260.05 139.243V114.893V114.903Z"
        fill="#005EA2"/>
    <path
        d="M733.422 0.564453V92.565H580.058V0.564453H503.352V175.787C520.561 176.798 535.178 182.485 546.085 191.877C558.925 202.927 566.163 218.495 566.163 237.178C566.163 242.493 565.472 247.693 564.117 252.727L563.898 253.572H580.058V161.571H733.422V253.572H810.119V0.564453H733.422Z"
        fill="#E31E26"/>
</svg>
