<svg id="Слой_1" data-name="Слой 1" xmlns="http://www.w3.org/2000/svg" viewBox="0 0 215 29"><title>logo-text</title><path d="M209.32,11.91a5,5,0,0,0-3.48,1.23A3.73,3.73,0,0,0,204.61,16a3.76,3.76,0,0,0,1.23,2.86,5.08,5.08,0,0,0,3.51,1.23,5,5,0,0,0,3.47-1.23,3.6,3.6,0,0,0,1.23-2.8,3.69,3.69,0,0,0-1.23-2.92A5.13,5.13,0,0,0,209.32,11.91Zm-40.3,0h-4v8.17h4c2.4,0,3.25-.34,4.11-1A3.68,3.68,0,0,0,174.3,16,3.69,3.69,0,0,0,173.13,13a4,4,0,0,0-1.56-.78,10.58,10.58,0,0,0-2.44-.24Zm.54-.92a8.21,8.21,0,0,1,3.07.47,4.06,4.06,0,0,1,2.21,2.08v0a5.52,5.52,0,0,1,.48,2.41,4.75,4.75,0,0,1-1.6,3.89,4.39,4.39,0,0,1-1.7.85,10,10,0,0,1-2.41.26H164V11Zm17.75,0v.94h-9V15.4h6.49v1h-6.49V20h9.34v1H177.22V11Zm22,0a6.18,6.18,0,0,1,3.84,1.17A4.61,4.61,0,0,1,215,16.08a4.46,4.46,0,0,1-1.84,3.75,6.89,6.89,0,0,1-7.65,0A4.54,4.54,0,0,1,203.67,16a4.52,4.52,0,0,1,1.83-3.83A6.4,6.4,0,0,1,209.32,11ZM190,11,195,18.9l5.31-7.9h1.51V21h-1.06V12.22l-5.79,8.47-5.37-8.47V21h-1V11Z" fill="#457c1f"/><path d="M39.85,18.62a9.64,9.64,0,0,0,2.95.51c1.66,0,2.69-.23,3.27-.82a3.33,3.33,0,0,0,.65-2.49V7.87h2.46v8.29c0,3.68-1.82,5.25-5.94,5.25a16.22,16.22,0,0,1-3.4-.33V18.62Zm10.78-2.71c0,2.53,1.65,5.5,6.29,5.5s6.3-3,6.3-5.5c0-3.55-2.35-5.66-6.3-5.66S50.63,12.36,50.63,15.91Zm6.3,3.32c-1.44,0-3.85-.46-3.85-3.44,0-2.14,1.41-3.37,3.85-3.37s3.84,1.22,3.84,3.37C60.77,18.77,58.35,19.23,56.93,19.23ZM73.51,10.5v4.25H67.12V10.5H64.68V21.16h2.44V16.93h6.39v4.23H76V10.5Zm39,8.47v-2h5.66V14.74h-5.66V12.67h7.31V10.5H110V21.16h9.77V19h-7.31Zm11.4,0v-2h5.66V14.74h-5.66V12.67h7.31V10.5h-9.77V21.16h9.77V19h-7.31Zm23.79,0v-2h5.67V14.74h-5.67V12.67H155V10.5h-9.77V21.16H155V19h-7.32ZM97.8,10.05V19h3.47c1.88,0,5-.58,5-4.5,0-2.81-1.84-4.42-5-4.42H97.8Zm3.47-2.2c4.7,0,7.51,2.53,7.51,6.75,0,3-2,6.55-7.51,6.55H95.35V7.85h5.92Zm42.83,13.3h-3l-3-3.9H135.3v3.9h-2.46V10.5h6.94c2.38,0,3.81,1.28,3.81,3.42A3.16,3.16,0,0,1,141,17.09Zm-4.18-6.07a1.18,1.18,0,0,0,1.35-1.21c0-.76-.49-1.2-1.35-1.2h-4.49v2.4ZM89.24,21.15V10.5H86.78v7.19l-6.4-7.19H78V21.16H80.4V13.9l6.38,7.26h2.46Z" fill="#457c1f"/><path d="M29.63,3.14a31.32,31.32,0,0,0-27.38,0,29.76,29.76,0,0,0,0,22.68A31.07,31.07,0,0,0,15.94,29a31,31,0,0,0,13.68-3.14A29.48,29.48,0,0,0,31.87,14.5,29.47,29.47,0,0,0,29.63,3.14Z" fill="#457c1f"/><path d="M28.65,4A30.12,30.12,0,0,0,3.22,4a28.58,28.58,0,0,0,0,21,29.65,29.65,0,0,0,12.73,2.83A29.73,29.73,0,0,0,28.65,25a28.41,28.41,0,0,0,2-10.49A28.52,28.52,0,0,0,28.65,4ZM11.59,11.21a13.35,13.35,0,0,0-1.3,4.46l-.38,0a15.45,15.45,0,0,0-4.18.77l.1.55a19.09,19.09,0,0,0,5.69,4.5l.07-.08-.74-1.17A2.21,2.21,0,0,0,10.2,20c-1.54-.51-2.61-2.51-2.79-2.86a10.86,10.86,0,0,1,3.44.72,12.82,12.82,0,0,0,2.07.57,12.86,12.86,0,0,0,3.63-.17,14.73,14.73,0,0,1,2.73-.05A7.76,7.76,0,0,0,21.23,20a41.74,41.74,0,0,0,4.59,1.63,13.57,13.57,0,0,1,2.11,2.81,28.75,28.75,0,0,1-12,2.6,28.71,28.71,0,0,1-12-2.62,27.43,27.43,0,0,1,0-19.78,29,29,0,0,1,24,0,27.58,27.58,0,0,1,.32,19,25.66,25.66,0,0,0-1.66-2.66,21.33,21.33,0,0,1-2.06-1.21,3.17,3.17,0,0,1-.65-1.51,6.55,6.55,0,0,0-1.45-3l1-.41c-.27-1.91-2.53-3.15-2.55-3.17l-.13.07a4.42,4.42,0,0,1,1.12,2.56,2.15,2.15,0,0,1-.07.56,16.49,16.49,0,0,0-5.72-.49,2.54,2.54,0,0,1-1.83-.47,1.5,1.5,0,0,1-.41-1.12,13.71,13.71,0,0,1,.63-3.34l1,.12a5.74,5.74,0,0,0,1.71-1.31l-.06-.06c-1,.11-2.33.38-2.33.38a5.39,5.39,0,0,0,.36-1.85,2.71,2.71,0,0,0-1.48-2.57l-.14.06a2.82,2.82,0,0,1,.68,1.75,2.28,2.28,0,0,1-.18.89,2.35,2.35,0,0,0-1-.19,2.88,2.88,0,0,0-1.84-1.81l-.13.09a2.65,2.65,0,0,1,1.06,1.76,5,5,0,0,0-1.33.28A2.12,2.12,0,0,0,9.2,6.11l-.1.07a1.84,1.84,0,0,1,1.08,1,8,8,0,0,0-1.48.94l0,.14c2.26-.88,4.38-1.14,4.91-.5a.6.6,0,0,1,.14.39,1.39,1.39,0,0,1-.21.66A32.24,32.24,0,0,0,9.41,10l.19.58,1.91.39S11.69,11,11.59,11.21Z" fill="#fd0"/></svg>